<svg width="2353" height="964" xmlns="http://www.w3.org/2000/svg" xmlns:xlink="http://www.w3.org/1999/xlink" overflow="hidden"><defs><clipPath id="clip0"><rect x="2368" y="171" width="2353" height="964"/></clipPath><clipPath id="clip1"><rect x="2369" y="171" width="2350" height="962"/></clipPath><clipPath id="clip2"><rect x="3493" y="222" width="1147" height="664"/></clipPath><clipPath id="clip3"><rect x="3493" y="222" width="1147" height="664"/></clipPath><clipPath id="clip4"><rect x="2369" y="171" width="2350" height="962"/></clipPath><clipPath id="clip5"><rect x="2369" y="171" width="2350" height="962"/></clipPath><clipPath id="clip6"><rect x="2369" y="171" width="2350" height="962"/></clipPath><clipPath id="clip7"><rect x="2369" y="171" width="2350" height="962"/></clipPath><clipPath id="clip8"><rect x="2369" y="171" width="2350" height="962"/></clipPath><clipPath id="clip9"><rect x="2369" y="171" width="2350" height="962"/></clipPath><clipPath id="clip10"><rect x="2369" y="171" width="2350" height="962"/></clipPath><clipPath id="clip11"><rect x="2369" y="171" width="2350" height="962"/></clipPath><clipPath id="clip12"><rect x="2369" y="171" width="2350" height="962"/></clipPath><clipPath id="clip13"><rect x="2369" y="171" width="2350" height="962"/></clipPath><clipPath id="clip14"><rect x="2369" y="171" width="2350" height="962"/></clipPath><clipPath id="clip15"><rect x="2369" y="171" width="2350" height="962"/></clipPath><clipPath id="clip16"><rect x="2369" y="171" width="2350" height="962"/></clipPath><clipPath id="clip17"><rect x="2369" y="171" width="2350" height="962"/></clipPath><clipPath id="clip18"><rect x="2369" y="171" width="2350" height="962"/></clipPath><clipPath id="clip19"><rect x="2369" y="171" width="2350" height="962"/></clipPath><clipPath id="clip20"><rect x="2369" y="171" width="2350" height="962"/></clipPath><clipPath id="clip21"><rect x="2369" y="171" width="2350" height="962"/></clipPath></defs><g clip-path="url(#clip0)" transform="translate(-2368 -171)"><rect x="2369" y="172" width="2350" height="961" fill="#FFFFFF"/><g clip-path="url(#clip1)"><path d="M3636.62 222.5 3636.62 883.5M3779.62 222.5 3779.62 883.5M3922.63 222.5 3922.63 883.5M4065.63 222.5 4065.63 883.5M4208.64 222.5 4208.64 883.5M4351.64 222.5 4351.64 883.5M4494.65 222.5 4494.65 883.5M4637.5 222.5 4637.5 883.5" stroke="#D9D9D9" stroke-width="3.4375" stroke-linejoin="round" stroke-miterlimit="10" fill="none"/></g><g clip-path="url(#clip2)"><path d="M3922.13 804.026 3494 804.026 3494 718.024 3922.13 718.024ZM4523.15 474.016 3494 474.016 3494 387.013 4523.15 387.013Z" fill="#5F5F5F"/></g><g clip-path="url(#clip3)"><path d="M3894.13 718.024 3494 718.024 3494 631.021 3894.13 631.021ZM4494.15 387.013 3494 387.013 3494 301.01 4494.15 301.01Z" fill="#B3B3B3"/></g><g clip-path="url(#clip4)"><path d="M0 0 0.000360892 661" stroke="#D9D9D9" stroke-width="3.4375" stroke-linejoin="round" stroke-miterlimit="10" fill="none" fill-rule="evenodd" transform="matrix(1 0 0 -1 3493.5 883.5)"/></g><g clip-path="url(#clip5)"><text fill="#595959" font-family="Calibri,Calibri_MSFontService,sans-serif" font-weight="400" font-size="41" transform="matrix(1 0 0 1 3462.15 948)">325</text></g><g clip-path="url(#clip6)"><text fill="#595959" font-family="Calibri,Calibri_MSFontService,sans-serif" font-weight="400" font-size="41" transform="matrix(1 0 0 1 3605.12 948)">330</text></g><g clip-path="url(#clip7)"><text fill="#595959" font-family="Calibri,Calibri_MSFontService,sans-serif" font-weight="400" font-size="41" transform="matrix(1 0 0 1 3748.09 948)">335</text></g><g clip-path="url(#clip8)"><text fill="#595959" font-family="Calibri,Calibri_MSFontService,sans-serif" font-weight="400" font-size="41" transform="matrix(1 0 0 1 3891.05 948)">340</text></g><g clip-path="url(#clip9)"><text fill="#595959" font-family="Calibri,Calibri_MSFontService,sans-serif" font-weight="400" font-size="41" transform="matrix(1 0 0 1 4034.02 948)">345</text></g><g clip-path="url(#clip10)"><text fill="#595959" font-family="Calibri,Calibri_MSFontService,sans-serif" font-weight="400" font-size="41" transform="matrix(1 0 0 1 4176.98 948)">350</text></g><g clip-path="url(#clip11)"><text fill="#595959" font-family="Calibri,Calibri_MSFontService,sans-serif" font-weight="400" font-size="41" transform="matrix(1 0 0 1 4319.95 948)">355</text></g><g clip-path="url(#clip12)"><text fill="#595959" font-family="Calibri,Calibri_MSFontService,sans-serif" font-weight="400" font-size="41" transform="matrix(1 0 0 1 4462.92 948)">360</text></g><g clip-path="url(#clip13)"><text fill="#595959" font-family="Calibri,Calibri_MSFontService,sans-serif" font-weight="400" font-size="41" transform="matrix(1 0 0 1 4605.88 948)">365</text></g><g clip-path="url(#clip14)"><text font-family="Calibri,Calibri_MSFontService,sans-serif" font-weight="400" font-size="73" transform="matrix(1 0 0 1 2398.92 694)">Recognized as the 1st candidate in</text></g><g clip-path="url(#clip15)"><text font-family="Calibri,Calibri_MSFontService,sans-serif" font-weight="400" font-size="73" transform="matrix(1 0 0 1 2721.63 784)">matching list</text></g><g clip-path="url(#clip16)"><text font-family="Calibri,Calibri_MSFontService,sans-serif" font-weight="400" font-size="73" transform="matrix(1 0 0 1 2429.76 364)">Recognized in top 5 candidates in</text></g><g clip-path="url(#clip17)"><text font-family="Calibri,Calibri_MSFontService,sans-serif" font-weight="400" font-size="73" transform="matrix(1 0 0 1 2737.05 453)">matching list</text></g><g clip-path="url(#clip18)"><rect x="2847" y="1027" width="40.0002" height="40.9999" fill="#B3B3B3"/></g><g clip-path="url(#clip19)"><text font-family="Calibri,Calibri_MSFontService,sans-serif" font-weight="400" font-size="73" transform="matrix(1 0 0 1 2905.6 1069)">Speed-up Method</text></g><g clip-path="url(#clip20)"><rect x="3557" y="1027" width="39.9998" height="40.9999" fill="#5F5F5F"/></g><g clip-path="url(#clip21)"><text font-family="Calibri,Calibri_MSFontService,sans-serif" font-weight="400" font-size="73" transform="matrix(1 0 0 1 3615.51 1069)">Conventional Method</text></g><rect x="2369.5" y="172.5" width="2350" height="961" stroke="#D9D9D9" stroke-width="3.4375" stroke-linejoin="round" stroke-miterlimit="10" fill="none"/></g></svg>