<svg width="2408" height="1217" xmlns="http://www.w3.org/2000/svg" xmlns:xlink="http://www.w3.org/1999/xlink" overflow="hidden"><defs><clipPath id="clip0"><rect x="259" y="1029" width="2408" height="1217"/></clipPath><clipPath id="clip1"><rect x="259" y="1029" width="2405" height="1215"/></clipPath><clipPath id="clip2"><rect x="1040" y="1080" width="1549" height="891"/></clipPath><clipPath id="clip3"><rect x="1040" y="1080" width="1549" height="891"/></clipPath><clipPath id="clip4"><rect x="259" y="1029" width="2405" height="1215"/></clipPath><clipPath id="clip5"><rect x="259" y="1029" width="2405" height="1215"/></clipPath><clipPath id="clip6"><rect x="259" y="1029" width="2405" height="1215"/></clipPath><clipPath id="clip7"><rect x="259" y="1029" width="2405" height="1215"/></clipPath><clipPath id="clip8"><rect x="259" y="1029" width="2405" height="1215"/></clipPath><clipPath id="clip9"><rect x="259" y="1029" width="2405" height="1215"/></clipPath><clipPath id="clip10"><rect x="259" y="1029" width="2405" height="1215"/></clipPath><clipPath id="clip11"><rect x="259" y="1029" width="2405" height="1215"/></clipPath><clipPath id="clip12"><rect x="259" y="1029" width="2405" height="1215"/></clipPath><clipPath id="clip13"><rect x="259" y="1029" width="2405" height="1215"/></clipPath><clipPath id="clip14"><rect x="259" y="1029" width="2405" height="1215"/></clipPath><clipPath id="clip15"><rect x="259" y="1029" width="2405" height="1215"/></clipPath><clipPath id="clip16"><rect x="259" y="1029" width="2405" height="1215"/></clipPath><clipPath id="clip17"><rect x="259" y="1029" width="2405" height="1215"/></clipPath><clipPath id="clip18"><rect x="259" y="1029" width="2405" height="1215"/></clipPath><clipPath id="clip19"><rect x="259" y="1029" width="2405" height="1215"/></clipPath></defs><g clip-path="url(#clip0)" transform="translate(-259 -1029)"><rect x="260" y="1030" width="2405" height="1214" fill="#FFFFFF"/><g clip-path="url(#clip1)"><path d="M1261.54 1080.5 1261.54 1968.5M1482.55 1080.5 1482.55 1968.5M1703.56 1080.5 1703.56 1968.5M1924.56 1080.5 1924.56 1968.5M2144.57 1080.5 2144.57 1968.5M2365.58 1080.5 2365.58 1968.5M2586.5 1080.5 2586.5 1968.5" stroke="#D9D9D9" stroke-width="3.4375" stroke-linejoin="round" stroke-miterlimit="10" fill="none"/></g><g clip-path="url(#clip2)"><path d="M1377.05 1898.06 1041 1898.06 1041 1820.06 1377.05 1820.06ZM1316.04 1602.05 1041 1602.05 1041 1524.05 1316.04 1524.05ZM2460.08 1306.04 1041 1306.04 1041 1228.04 2460.08 1228.04Z" fill="#5F5F5F"/></g><g clip-path="url(#clip3)"><path d="M1063.03 1820.06 1041 1820.06 1041 1743.06 1063.03 1743.06ZM1061.03 1524.05 1041 1524.05 1041 1447.05 1061.03 1447.05ZM1107.04 1228.04 1041 1228.04 1041 1151.04 1107.04 1151.04Z" fill="#B3B3B3"/></g><g clip-path="url(#clip4)"><path d="M0 0 0.000360892 888" stroke="#D9D9D9" stroke-width="3.4375" stroke-linejoin="round" stroke-miterlimit="10" fill="none" fill-rule="evenodd" transform="matrix(1 0 0 -1 1040.5 1968.5)"/></g><g clip-path="url(#clip5)"><text fill="#595959" font-family="Calibri,Calibri_MSFontService,sans-serif" font-weight="400" font-size="55" transform="matrix(1 0 0 1 1027 2055)">0</text></g><g clip-path="url(#clip6)"><text fill="#595959" font-family="Calibri,Calibri_MSFontService,sans-serif" font-weight="400" font-size="55" transform="matrix(1 0 0 1 1233.86 2055)">10</text></g><g clip-path="url(#clip7)"><text fill="#595959" font-family="Calibri,Calibri_MSFontService,sans-serif" font-weight="400" font-size="55" transform="matrix(1 0 0 1 1454.65 2055)">20</text></g><g clip-path="url(#clip8)"><text fill="#595959" font-family="Calibri,Calibri_MSFontService,sans-serif" font-weight="400" font-size="55" transform="matrix(1 0 0 1 1675.44 2055)">30</text></g><g clip-path="url(#clip9)"><text fill="#595959" font-family="Calibri,Calibri_MSFontService,sans-serif" font-weight="400" font-size="55" transform="matrix(1 0 0 1 1896.23 2055)">40</text></g><g clip-path="url(#clip10)"><text fill="#595959" font-family="Calibri,Calibri_MSFontService,sans-serif" font-weight="400" font-size="55" transform="matrix(1 0 0 1 2117.02 2055)">50</text></g><g clip-path="url(#clip11)"><text fill="#595959" font-family="Calibri,Calibri_MSFontService,sans-serif" font-weight="400" font-size="55" transform="matrix(1 0 0 1 2337.81 2055)">60</text></g><g clip-path="url(#clip12)"><text fill="#595959" font-family="Calibri,Calibri_MSFontService,sans-serif" font-weight="400" font-size="55" transform="matrix(1 0 0 1 2558.6 2055)">70</text></g><g clip-path="url(#clip13)"><text font-family="Calibri,Calibri_MSFontService,sans-serif" font-weight="400" font-size="73" transform="matrix(1 0 0 1 348.012 1842)">Average Search Time</text></g><g clip-path="url(#clip14)"><text font-family="Calibri,Calibri_MSFontService,sans-serif" font-weight="400" font-size="73" transform="matrix(1 0 0 1 363.573 1546)">Median Search Time</text></g><g clip-path="url(#clip15)"><text font-family="Calibri,Calibri_MSFontService,sans-serif" font-weight="400" font-size="73" transform="matrix(1 0 0 1 289.667 1250)">Maximum Search Time</text></g><g clip-path="url(#clip16)"><rect x="765" y="2138" width="40.0002" height="41" fill="#B3B3B3"/></g><g clip-path="url(#clip17)"><text font-family="Calibri,Calibri_MSFontService,sans-serif" font-weight="400" font-size="73" transform="matrix(1 0 0 1 823.849 2180)">Speed-up Method</text></g><g clip-path="url(#clip18)"><rect x="1475" y="2138" width="39.9999" height="41" fill="#5F5F5F"/></g><g clip-path="url(#clip19)"><text font-family="Calibri,Calibri_MSFontService,sans-serif" font-weight="400" font-size="73" transform="matrix(1 0 0 1 1533.76 2180)">Conventional Method</text></g><rect x="260.5" y="1030.5" width="2405" height="1214" stroke="#D9D9D9" stroke-width="3.4375" stroke-linejoin="round" stroke-miterlimit="10" fill="none"/></g></svg>